<svg width="24" height="24" viewBox="0 0 24 24" fill="none" xmlns="http://www.w3.org/2000/svg">
<path d="M20.4292 13.105C20.4717 12.7508 20.5 12.3825 20.5 12C20.5 11.6175 20.4717 11.2492 20.415 10.895L22.8092 9.02499C23.0217 8.85499 23.0783 8.54332 22.9508 8.30249L20.6842 4.37832C20.5425 4.12332 20.245 4.03832 19.99 4.12332L17.1708 5.25666C16.5758 4.80332 15.9525 4.43499 15.2583 4.15166L14.8333 1.14832C14.7908 0.86499 14.55 0.666656 14.2667 0.666656H9.73334C9.45001 0.666656 9.22334 0.86499 9.18084 1.14832L8.75584 4.15166C8.06168 4.43499 7.42418 4.81749 6.84334 5.25666L4.02418 4.12332C3.76918 4.02416 3.47168 4.12332 3.33001 4.37832L1.06334 8.30249C0.921677 8.55749 0.978344 8.85499 1.20501 9.02499L3.59918 10.895C3.54251 11.2492 3.50001 11.6317 3.50001 12C3.50001 12.3683 3.52834 12.7508 3.58501 13.105L1.19084 14.975C0.978344 15.145 0.921677 15.4567 1.04918 15.6975L3.31584 19.6217C3.45751 19.8767 3.75501 19.9617 4.01001 19.8767L6.82918 18.7433C7.42418 19.1967 8.04751 19.565 8.74168 19.8483L9.16668 22.8517C9.22334 23.135 9.45001 23.3333 9.73334 23.3333H14.2667C14.55 23.3333 14.7908 23.135 14.8192 22.8517L15.2442 19.8483C15.9383 19.565 16.5758 19.1825 17.1567 18.7433L19.9758 19.8767C20.2308 19.9758 20.5283 19.8767 20.67 19.6217L22.9367 15.6975C23.0783 15.4425 23.0217 15.145 22.795 14.975L20.4292 13.105V13.105ZM12 16.25C9.66251 16.25 7.75001 14.3375 7.75001 12C7.75001 9.66249 9.66251 7.74999 12 7.74999C14.3375 7.74999 16.25 9.66249 16.25 12C16.25 14.3375 14.3375 16.25 12 16.25Z" fill="#333333"/>
</svg>
